HIERARCHY
ROOT hip
{
  OFFSET 0 0 0
  CHANNELS 6 Xposition Yposition Zposition Zrotation Yrotation Xrotation
  JOINT abdomen
  {
    OFFSET 0 20.6881 -0.73152
    CHANNELS 3 Zrotation Xrotation Yrotation
    JOINT chest
    {
      OFFSET 0 11.7043 -0.48768
      CHANNELS 3 Zrotation Xrotation Yrotation
      JOINT neck
      {
        OFFSET 0 22.1894 -2.19456
        CHANNELS 3 Zrotation Xrotation Yrotation
        JOINT head
        {
          OFFSET -0.24384 7.07133 1.2192
          CHANNELS 3 Zrotation Xrotation Yrotation
          JOINT leftEye
          {
            OFFSET 4.14528 8.04674 8.04672
            CHANNELS 3 Zrotation Xrotation Yrotation
            End Site
            {
              OFFSET 1 0 0
            }
          }
          JOINT rightEye
          {
            OFFSET -3.6576 8.04674 8.04672
            CHANNELS 3 Zrotation Xrotation Yrotation
            End Site
            {
              OFFSET 1 0 0
            }
          }
        }
      }
      JOINT rCollar
      {
        OFFSET -2.68224 19.2634 -4.8768
        CHANNELS 3 Zrotation Xrotation Yrotation
        JOINT rShldr
        {
          OFFSET -8.77824 -1.95073 1.46304
          CHANNELS 3 Zrotation Xrotation Yrotation
          JOINT rForeArm
          {
            OFFSET -28.1742 -1.7115 0.48768
            CHANNELS 3 Zrotation Xrotation Yrotation
            JOINT rHand
            {
              OFFSET -22.5879 0.773209 7.07136
              CHANNELS 3 Zrotation Xrotation Yrotation
              JOINT rThumb1
              {
                OFFSET -1.2192 -0.487915 3.41376
                CHANNELS 3 Zrotation Xrotation Yrotation
                JOINT rThumb2
                {
                  OFFSET -3.37035 -0.52449 3.41376
                  CHANNELS 3 Zrotation Xrotation Yrotation
                  End Site
                  {
                    OFFSET -1.78271 -1.18214 1.43049
                  }
                }
              }
              JOINT rIndex1
              {
                OFFSET -7.75947 0.938293 5.60832
                CHANNELS 3 Zrotation Xrotation Yrotation
                JOINT rIndex2
                {
                  OFFSET -2.54057 -0.884171 1.56538
                  CHANNELS 3 Zrotation Xrotation Yrotation
                  End Site
                  {
                    OFFSET -1.62519 -0.234802 1.16502
                  }
                }
              }
              JOINT rMid1
              {
                OFFSET -8.24714 1.18213 3.41376
                CHANNELS 3 Zrotation Xrotation Yrotation
                JOINT rMid2
                {
                  OFFSET -3.10165 -0.590103 1.0647
                  CHANNELS 3 Zrotation Xrotation Yrotation
                  End Site
                  {
                    OFFSET -2.48547 -0.328903 0.83742
                  }
                }
              }
              JOINT rRing1
              {
                OFFSET -8.82822 0.546677 1.51678
                CHANNELS 3 Zrotation Xrotation Yrotation
                JOINT rRing2
                {
                  OFFSET -2.60934 -0.819778 -0.0198488
                  CHANNELS 3 Zrotation Xrotation Yrotation
                  End Site
                  {
                    OFFSET -2.33842 -0.294052 0.168128
                  }
                }
              }
              JOINT rPinky1
              {
                OFFSET -8.27202 -0.0477905 -0.4584
                CHANNELS 3 Zrotation Xrotation Yrotation
                JOINT rPinky2
                {
                  OFFSET -1.82734 -0.647385 -0.700984
                  CHANNELS 3 Zrotation Xrotation Yrotation
                  End Site
                  {
                    OFFSET -1.69225 -0.51767 -0.607171
                  }
                }
              }
            }
          }
        }
      }
      JOINT lCollar
      {
        OFFSET 2.68224 19.2634 -4.8768
        CHANNELS 3 Zrotation Xrotation Yrotation
        JOINT lShldr
        {
          OFFSET 8.77824 -1.95073 1.46304
          CHANNELS 3 Zrotation Xrotation Yrotation
          JOINT lForeArm
          {
            OFFSET 28.1742 -1.7115 0.48768
            CHANNELS 3 Zrotation Xrotation Yrotation
            JOINT lHand
            {
              OFFSET 22.5879 0.773209 7.07136
              CHANNELS 3 Zrotation Xrotation Yrotation
              JOINT lThumb1
              {
                OFFSET 1.2192 -0.487915 3.41376
                CHANNELS 3 Zrotation Xrotation Yrotation
                JOINT lThumb2
                {
                  OFFSET 3.37035 -0.52449 3.41376
                  CHANNELS 3 Zrotation Xrotation Yrotation
                  End Site
                  {
                    OFFSET 1.78271 -1.18214 1.43049
                  }
                }
              }
              JOINT lIndex1
              {
                OFFSET 7.75947 0.938293 5.60832
                CHANNELS 3 Zrotation Xrotation Yrotation
                JOINT lIndex2
                {
                  OFFSET 2.54057 -0.884171 1.56538
                  CHANNELS 3 Zrotation Xrotation Yrotation
                  End Site
                  {
                    OFFSET 1.62519 -0.234802 1.16502
                  }
                }
              }
              JOINT lMid1
              {
                OFFSET 8.24714 1.18213 3.41376
                CHANNELS 3 Zrotation Xrotation Yrotation
                JOINT lMid2
                {
                  OFFSET 3.10165 -0.590103 1.0647
                  CHANNELS 3 Zrotation Xrotation Yrotation
                  End Site
                  {
                    OFFSET 2.48547 -0.328903 0.83742
                  }
                }
              }
              JOINT lRing1
              {
                OFFSET 8.82822 0.546677 1.51678
                CHANNELS 3 Zrotation Xrotation Yrotation
                JOINT lRing2
                {
                  OFFSET 2.60934 -0.819778 -0.0198488
                  CHANNELS 3 Zrotation Xrotation Yrotation
                  End Site
                  {
                    OFFSET 2.33842 -0.294052 0.168128
                  }
                }
              }
              JOINT lPinky1
              {
                OFFSET 8.27202 -0.0477905 -0.4584
                CHANNELS 3 Zrotation Xrotation Yrotation
                JOINT lPinky2
                {
                  OFFSET 1.82734 -0.647385 -0.700984
                  CHANNELS 3 Zrotation Xrotation Yrotation
                  End Site
                  {
                    OFFSET 1.69225 -0.51767 -0.607171
                  }
                }
              }
            }
          }
        }
      }
    }
  }
  JOINT rButtock
  {
    OFFSET -8.77824 4.35084 1.2192
    CHANNELS 3 Zrotation Xrotation Yrotation
    JOINT rThigh
    {
      OFFSET 0 -1.70687 -2.19456
      CHANNELS 3 Zrotation Xrotation Yrotation
      JOINT rShin
      {
        OFFSET 0 -36.8199 0.73152
        CHANNELS 3 Zrotation Xrotation Yrotation
        JOINT rFoot
        {
          OFFSET 0.73152 -45.1104 -5.12064
          CHANNELS 3 Zrotation Xrotation Yrotation
          End Site
          {
            OFFSET -1.1221 -3.69964 12.103
          }
        }
      }
    }
  }
  JOINT lButtock
  {
    OFFSET 8.77824 4.35084 1.2192
    CHANNELS 3 Zrotation Xrotation Yrotation
    JOINT lThigh
    {
      OFFSET 0 -1.70687 -2.19456
      CHANNELS 3 Zrotation Xrotation Yrotation
      JOINT lShin
      {
        OFFSET 0 -36.8199 0.73152
        CHANNELS 3 Zrotation Xrotation Yrotation
        JOINT lFoot
        {
          OFFSET -0.73152 -45.1104 -5.12064
          CHANNELS 3 Zrotation Xrotation Yrotation
          End Site
          {
            OFFSET 1.1221 -3.69964 12.103
          }
        }
      }
    }
  }
}
MOTION
Frames:	4
Frame Time:	0.00833333
-1.49121 82.4855 46.9496 0.0 0.0 0.0 -4.35895 0.00629239 -0.117455 -1.20159 0.0324761 -0.207681 1.29227e-13 2.38542e-15 1.2424e-15 3.86872e-13 9.54166e-15 3.82195e-15 -0.0 0.0 0.0 -0.0 0.0 0.0 6.49061e-14 3.59521e-16 7.95139e-16 1.35872e-12 8.46077e-15 1.8487e-14 2.33505e-11 -6.76842e-12 4.45278e-14 2.67988e-10 8.43066e-12 3.0756e-12 6.32013e-10 3.59129e-12 6.73005e-12 1.09145e-09 6.1989e-12 1.15931e-11 6.32016e-10 3.59124e-12 6.71097e-12 7.73091 5.47488 0.417314 6.32012e-10 3.59134e-12 6.72687e-12 2.90554 0.965183 0.102902 6.32013e-10 3.59065e-12 6.72767e-12 10.2786 0.731801 0.0259123 6.32002e-10 3.59283e-12 6.7396e-12 2.22167 -0.733487 -0.20892 6.47058e-14 3.59521e-16 4.96962e-16 1.35827e-12 7.81472e-15 1.66979e-14 2.34681e-11 7.25166e-12 6.36111e-14 2.67909e-10 -5.63189e-12 3.06924e-12 6.32086e-10 3.50606e-12 6.73005e-12 1.0916e-09 6.05896e-12 1.16154e-11 6.32085e-10 3.50378e-12 6.74596e-12 -7.73091 5.47488 -0.417314 6.32086e-10 3.50547e-12 6.73323e-12 -2.90554 0.965183 -0.102902 6.32077e-10 3.50567e-12 6.73244e-12 -10.2786 0.731801 -0.0259123 6.3209e-10 3.51054e-12 6.73005e-12 -2.22167 -0.733487 0.20892 -2.03217e-16 0.0 -3.88251e-19 -2.88812 -1.94435 0.030415 -0.00797288 -2.07874 -0.0650951 -0.422325 4.00217 0.127126 2.03217e-16 0.0 3.88251e-19 -3.72544 -11.2507 0.483805 -0.0143129 14.7725 -0.388794 0.544901 -3.54242 0.012504
-3.46319 82.1492 44.9849 -7.707 -3.1306 8.5754 -2.85142 -2.27909 0.903733 -1.67317 -2.7058 -0.0137116 -2.96288 4.2498 -3.60704 6.86949 -4.88632 -6.28144 -0.0 0.0 0.0 -0.0 0.0 0.0 3.48652e-14 3.72989e-14 -9.3093e-14 22.9973 4.78322 -2.27296 -3.51365 -1.47792 5.61 0.237846 10.8574 1.42892 3.00707e-10 1.71659e-10 -5.26075e-11 5.14797e-10 2.91158e-10 -8.47062e-11 3.00712e-10 1.71659e-10 -5.26228e-11 7.73091 5.47488 0.417314 3.00711e-10 1.71657e-10 -5.2605e-11 2.90554 0.965183 0.102902 3.00708e-10 1.71659e-10 -5.26089e-11 10.2786 0.731801 0.0259123 3.00698e-10 1.71662e-10 -5.25978e-11 2.22167 -0.733487 -0.20892 3.47025e-14 3.72956e-14 -9.33764e-14 -22.9036 2.54226 1.9828 2.82183 -1.09114 -4.5932 -0.10981 7.36223 -1.00411 1.05884e-09 3.77437e-10 -3.71445e-10 1.81994e-09 6.37867e-10 -6.55824e-10 1.05884e-09 3.77431e-10 -3.71433e-10 -7.73091 5.47488 -0.417314 1.05884e-09 3.77432e-10 -3.71442e-10 -2.90554 0.965183 -0.102902 1.05884e-09 3.77431e-10 -3.71442e-10 -10.2786 0.731801 -0.0259123 1.05885e-09 3.77435e-10 -3.71446e-10 -2.22167 -0.733487 0.20892 -2.03217e-16 0.0 -3.88251e-19 -1.4864 -2.86681 6.73303 0.00306334 -1.7912 0.0297573 -0.816233 1.82843 -6.39831 2.03217e-16 0.0 3.88251e-19 -4.01678 -10.1433 -11.3287 -0.00814482 14.1372 -0.265852 1.46161 -9.34538 14.2023
-3.45784 82.1506 44.9902 -7.675 -3.1509 8.5465 -1.17143 -4.68021 1.9973 -2.1496 -5.58969 0.195426 -5.51123 8.66359 -7.49154 12.9615 -9.85353 -13.078 -0.0 0.0 0.0 -0.0 0.0 0.0 1.47882e-15 7.71899e-14 -1.97359e-13 47.722 9.77363 -4.71511 -6.91757 -2.99465 11.5565 -0.143155 22.3399 3.12462 -6.87116e-11 3.56497e-10 -1.07543e-10 -1.27841e-10 6.04014e-10 -1.72443e-10 -6.87052e-11 3.56497e-10 -1.07554e-10 7.73091 5.47488 0.417314 -6.87032e-11 3.56493e-10 -1.07534e-10 2.90554 0.965183 0.102902 -6.87102e-11 3.56497e-10 -1.07543e-10 10.2786 0.731801 0.0259123 -6.87206e-11 3.565e-10 -1.07533e-10 2.22167 -0.733487 -0.20892 1.354e-15 7.71827e-14 -1.97626e-13 -47.3075 5.20925 4.07059 5.6104 -2.21849 -9.44617 0.063889 15.1448 -2.12325 1.5586e-09 8.03398e-10 -7.90614e-10 2.67341e-09 1.35784e-09 -1.39599e-09 1.55859e-09 8.03388e-10 -7.90606e-10 -7.73091 5.47488 -0.417314 1.5586e-09 8.03389e-10 -7.90611e-10 -2.90554 0.965183 -0.102902 1.55859e-09 8.03386e-10 -7.9061e-10 -10.2786 0.731801 -0.0259123 1.55861e-09 8.0339e-10 -7.90617e-10 -2.22167 -0.733487 0.20892 -2.03217e-16 0.0 -3.88251e-19 0.225497 -3.76859 13.836 0.0137922 -1.48456 0.130136 -1.7679 -0.437326 -13.2897 2.03217e-16 0.0 3.88251e-19 -3.829 -8.59495 -23.7137 0.00143223 13.4663 -0.13688 5.49275 -14.037 29.7786
-3.45911 82.1538 44.9975 -7.673 -3.1752 8.5111 0.409361 -6.84161 2.9651 -2.56036 -8.18216 0.378121 -7.26079 12.545 -11.0586 17.3774 -13.946 -19.3682 -0.0 0.0 0.0 -0.0 0.0 0.0 -2.52166e-14 1.11178e-13 -2.80869e-13 70.1582 14.2579 -7.01214 -9.68457 -4.26402 16.8725 -1.165 32.4835 4.99267 -3.61903e-10 5.07796e-10 -1.71283e-10 -6.38504e-10 8.61075e-10 -2.77305e-10 -3.61895e-10 5.07796e-10 -1.7129e-10 7.73091 5.47488 0.417314 -3.61891e-10 5.07789e-10 -1.71269e-10 2.90554 0.965183 0.102902 -3.61901e-10 5.07796e-10 -1.71282e-10 10.2786 0.731801 0.0259123 -3.61912e-10 5.07799e-10 -1.71272e-10 2.22167 -0.733487 -0.20892 -2.53042e-14 1.11168e-13 -2.81123e-13 -69.2417 7.59008 5.99525 7.94559 -3.18939 -13.7989 0.496288 22.0585 -3.22369 1.91236e-09 1.1253e-09 -1.1278e-09 3.2766e-09 1.90148e-09 -1.9907e-09 1.91235e-09 1.12529e-09 -1.12779e-09 -7.73091 5.47488 -0.417314 1.91236e-09 1.12529e-09 -1.12779e-09 -2.90554 0.965183 -0.102902 1.91235e-09 1.12528e-09 -1.12779e-09 -10.2786 0.731801 -0.0259123 1.91237e-09 1.12528e-09 -1.1278e-09 -2.22167 -0.733487 0.20892 -2.03217e-16 0.0 -3.88251e-19 1.94828 -4.47977 20.1772 0.0222791 -1.21612 0.219382 -3.06417 -2.34301 -19.4557 2.03217e-16 0.0 3.88251e-19 -3.18572 -7.02142 -34.6941 0.0125793 12.8664 -0.0220697 11.2347 -16.0327 44.1291
